<?xml version="1.0" encoding="UTF-8"?>
<!DOCTYPE svg PUBLIC "-//W3C//DTD SVG 1.1//EN" "http://www.w3.org/Graphics/SVG/1.1/DTD/svg11.dtd">
<svg xmlns="http://www.w3.org/2000/svg" version="1.1" width="68px" height="59px" style="shape-rendering:geometricPrecision; text-rendering:geometricPrecision; image-rendering:optimizeQuality; fill-rule:evenodd; clip-rule:evenodd" xmlns:xlink="http://www.w3.org/1999/xlink">
<g><path style="opacity:0.849" fill="#fefffe" d="M 32.5,3.5 C 49.4598,3.9684 59.4598,12.4684 62.5,29C 59.5939,45.0674 49.9272,53.5674 33.5,54.5C 17.064,53.5576 7.3973,45.0576 4.5,29C 7.36453,13.2987 16.6979,4.79871 32.5,3.5 Z M 30.5,9.5 C 44.6376,8.87093 52.9709,15.3709 55.5,29C 53.432,41.2258 46.0987,47.7258 33.5,48.5C 15.4024,46.283 8.90238,36.6163 14,19.5C 18.4428,14.2047 23.9428,10.8714 30.5,9.5 Z"/></g>
<g><path style="opacity:0.779" fill="#fefffe" d="M 30.5,16.5 C 32.5,16.5 34.5,16.5 36.5,16.5C 36.5,18.5 36.5,20.5 36.5,22.5C 34.5,22.5 32.5,22.5 30.5,22.5C 30.5,20.5 30.5,18.5 30.5,16.5 Z"/></g>
<g><path style="opacity:0.942" fill="#fefffe" d="M 30.5,26.5 C 32.5,26.5 34.5,26.5 36.5,26.5C 36.5,31.5 36.5,36.5 36.5,41.5C 34.5,41.5 32.5,41.5 30.5,41.5C 30.5,36.5 30.5,31.5 30.5,26.5 Z"/></g>
</svg>
