<?xml version="1.0" standalone="no"?>
<!DOCTYPE svg PUBLIC "-//W3C//DTD SVG 20010904//EN"
 "http://www.w3.org/TR/2001/REC-SVG-20010904/DTD/svg10.dtd">
<svg version="1.0" xmlns="http://www.w3.org/2000/svg"
 width="60.000000pt" height="55.000000pt"
 preserveAspectRatio="xMidYMid meet">

<g transform="translate(0.000000,59.000000) scale(0.100000,-0.100000)"
fill="#ffff" stroke="none">
<path d="M5 577 c-3 -7 -4 -138 -3 -292 l3 -280 283 -3 c261 -2 282 -1 282 15
0 13 3 14 12 5 7 -7 19 -12 27 -12 11 0 10 4 -4 20 -15 17 -16 20 -3 20 9 0
21 7 28 15 17 20 -3 45 -36 45 -22 0 -24 4 -24 44 0 25 -4 47 -9 51 -10 6 76
99 99 107 11 3 15 22 16 69 2 55 -2 70 -25 104 -15 22 -36 42 -46 43 -11 2
-28 11 -37 19 -9 9 -38 18 -63 21 -25 2 -48 9 -51 13 -3 5 -104 9 -225 9 -168
0 -221 -3 -224 -13z m431 -16 c-3 -5 -25 -18 -50 -29 -24 -12 -46 -28 -49 -36
-5 -14 -30 -16 -162 -16 l-155 0 0 45 0 45 211 0 c119 0 208 -4 205 -9z m134
-37 c61 -32 95 -84 82 -123 l-9 -26 -14 30 c-7 17 -14 31 -15 33 -1 2 -11 -2
-22 -9 -17 -10 -23 -10 -37 1 -12 10 -19 10 -27 2 -15 -15 -51 -15 -66 0 -8 8
-15 8 -27 -2 -14 -11 -20 -11 -37 -1 -11 7 -21 11 -22 9 -1 -2 -8 -16 -16 -31
-14 -28 -15 -28 -24 -8 -13 30 19 97 53 111 14 6 37 17 51 25 37 21 74 18 130
-11z m-260 -84 c0 -19 -7 -20 -129 -20 -105 0 -130 -3 -135 -15 -6 -18 2 -45
15 -45 5 0 9 -67 9 -150 l0 -150 109 0 c63 0 112 -4 116 -10 3 -5 26 -10 51
-10 24 0 44 -4 44 -10 0 -6 -68 -10 -185 -10 l-185 0 0 213 c0 118 3 217 7
220 3 4 69 7 145 7 131 0 138 -1 138 -20z m273 -39 c26 -1 27 -3 27 -55 0 -49
-3 -57 -35 -85 -84 -73 -212 -12 -203 97 3 34 6 37 38 42 31 5 74 5 173 1z
m-268 -11 c4 -6 -38 -10 -119 -10 -77 0 -126 4 -126 10 0 13 237 13 245 0z
m-5 -51 c0 -13 8 -23 20 -26 12 -3 27 -18 35 -34 8 -15 28 -36 45 -45 27 -17
28 -19 14 -35 -15 -16 -17 -15 -43 13 -26 29 -33 31 -102 34 -41 1 -87 -2
-102 -8 -28 -11 -67 -71 -67 -103 0 -8 -4 -15 -10 -15 -6 0 -10 47 -10 120 l0
120 110 0 c105 0 110 -1 110 -21z m36 -6 c-10 -10 -19 5 -10 18 6 11 8 11 12
0 2 -7 1 -15 -2 -18z m314 6 c0 -5 -4 -9 -10 -9 -5 0 -10 7 -10 16 0 8 5 12
10 9 6 -3 10 -10 10 -16z m-420 -113 c0 -3 -4 -16 -10 -30 -8 -21 -16 -26 -45
-26 -25 0 -35 4 -35 16 0 11 6 14 22 9 17 -6 20 -4 15 9 -6 14 -3 16 13 11 11
-4 20 -2 20 4 0 6 5 11 10 11 6 0 10 -2 10 -4z m132 -30 c15 -22 7 -26 -57
-26 -52 0 -65 3 -65 16 0 11 6 14 22 9 17 -6 20 -4 15 9 -6 14 -3 16 13 11 12
-4 20 -2 20 5 0 12 40 -6 52 -24z m172 -8 c26 -43 -54 -128 -121 -128 -42 0
-43 21 -3 50 17 12 40 40 51 61 22 43 52 50 73 17z m-104 -34 c-18 -21 -24
-10 -9 18 8 14 14 18 17 10 2 -7 -2 -19 -8 -28z m-42 -16 c-6 -18 -259 -18
-265 0 -4 9 27 12 132 12 105 0 136 -3 133 -12z m-28 -53 c0 -21 -5 -25 -30
-25 -36 0 -40 22 -7 38 33 16 37 14 37 -13z m-260 5 c0 -5 -4 -10 -10 -10 -5
0 -10 5 -10 10 0 6 5 10 10 10 6 0 10 -4 10 -10z m40 0 c0 -5 -4 -10 -10 -10
-5 0 -10 5 -10 10 0 6 5 10 10 10 6 0 10 -4 10 -10z m50 0 c0 -5 -4 -10 -10
-10 -5 0 -10 5 -10 10 0 6 5 10 10 10 6 0 10 -4 10 -10z m40 0 c0 -5 -4 -10
-10 -10 -5 0 -10 5 -10 10 0 6 5 10 10 10 6 0 10 -4 10 -10z m50 0 c0 -5 -7
-10 -15 -10 -8 0 -15 5 -15 10 0 6 7 10 15 10 8 0 15 -4 15 -10z m320 -10 c0
-5 -9 -10 -21 -10 -11 0 -17 5 -14 10 3 6 13 10 21 10 8 0 14 -4 14 -10z m-62
-38 c3 -21 0 -22 -62 -22 -36 0 -66 3 -66 8 0 9 89 40 110 38 8 -1 16 -11 18
-24z"/>
<path d="M52 538 c-16 -19 1 -40 29 -36 16 2 24 10 24 23 0 24 -36 33 -53 13z
m38 -12 c0 -3 -4 -8 -10 -11 -5 -3 -10 -1 -10 4 0 6 5 11 10 11 6 0 10 -2 10
-4z"/>
<path d="M134 535 c-8 -21 4 -35 31 -35 28 0 38 12 29 34 -8 20 -53 21 -60 1z
m36 -15 c0 -5 -2 -10 -4 -10 -3 0 -8 5 -11 10 -3 6 -1 10 4 10 6 0 11 -4 11
-10z"/>
<path d="M224 536 c-9 -22 4 -36 32 -36 21 0 25 4 22 23 -4 26 -45 37 -54 13z
m36 -16 c0 -5 -2 -10 -4 -10 -3 0 -8 5 -11 10 -3 6 -1 10 4 10 6 0 11 -4 11
-10z"/>
<path d="M407 373 c-4 -3 -7 -13 -7 -21 0 -12 3 -12 16 -1 13 10 17 10 24 -1
11 -18 24 -6 17 15 -6 15 -38 21 -50 8z"/>
<path d="M533 365 c-8 -22 6 -33 18 -15 8 13 10 13 18 0 12 -18 26 -7 18 15
-4 8 -16 15 -27 15 -11 0 -23 -7 -27 -15z"/>
<path d="M500 293 c-37 -7 -49 -23 -18 -23 33 0 58 9 58 21 0 5 -3 8 -7 8 -5
-1 -19 -4 -33 -6z"/>
</g>
</svg>
