<?xml version="1.0" encoding="UTF-8"?>
<!DOCTYPE svg PUBLIC "-//W3C//DTD SVG 1.1//EN" "http://www.w3.org/Graphics/SVG/1.1/DTD/svg11.dtd">
<svg xmlns="http://www.w3.org/2000/svg" version="1.1" width="68px" height="59px" style="shape-rendering:geometricPrecision; text-rendering:geometricPrecision; image-rendering:optimizeQuality; fill-rule:evenodd; clip-rule:evenodd" xmlns:xlink="http://www.w3.org/1999/xlink">
<g><path style="opacity:0.792" fill="#0a0607" d="M 28.5,-0.5 C 31.8333,-0.5 35.1667,-0.5 38.5,-0.5C 39.6253,1.12879 40.9586,2.62879 42.5,4C 47.2508,4.18866 51.9174,4.85533 56.5,6C 58.1283,9.60331 58.9616,13.4366 59,17.5C 60.6667,19.1667 62.3333,20.8333 64,22.5C 64.6667,33.5 64.6667,44.5 64,55.5C 63.3021,56.6906 62.4687,57.6906 61.5,58.5C 53.5,58.5 45.5,58.5 37.5,58.5C 37.8333,57.8333 38.1667,57.1667 38.5,56.5C 45.1998,56.83 51.8665,56.4967 58.5,55.5C 58.3764,54.8933 58.0431,54.56 57.5,54.5C 57.8417,53.6618 58.5084,53.3284 59.5,53.5C 60.8255,49.5549 61.4921,45.2216 61.5,40.5C 61.1667,36.1667 60.8333,31.8333 60.5,27.5C 57.4362,30.5703 54.1029,33.2369 50.5,35.5C 50.5,34.8333 50.1667,34.5 49.5,34.5C 50.8121,32.5212 52.4788,30.8545 54.5,29.5C 55.6642,22.8582 55.8309,16.1915 55,9.5C 54.5,9 54,8.5 53.5,8C 40.1667,7.33333 26.8333,7.33333 13.5,8C 13,8.5 12.5,9 12,9.5C 11.1691,16.1915 11.3358,22.8582 12.5,29.5C 16.8795,33.55 21.2129,37.55 25.5,41.5C 24.8333,41.5 24.5,41.8333 24.5,42.5C 18.983,45.7705 13.983,49.7705 9.5,54.5C 8.95691,54.56 8.62358,54.8933 8.5,55.5C 15.1335,56.4967 21.8002,56.83 28.5,56.5C 28.8333,57.1667 29.1667,57.8333 29.5,58.5C 21.5,58.5 13.5,58.5 5.5,58.5C 4.53128,57.6906 3.69794,56.6906 3,55.5C 2.33333,44.5 2.33333,33.5 3,22.5C 4.66667,20.8333 6.33333,19.1667 8,17.5C 8.03836,13.4366 8.87169,9.60331 10.5,6C 15.0826,4.85533 19.7492,4.18866 24.5,4C 26.0414,2.62879 27.3747,1.12879 28.5,-0.5 Z"/></g>
<g><path style="opacity:1" fill="#798297" d="M 31.5,1.5 C 34.6593,1.48145 37.326,2.64811 39.5,5C 35.5,5.66667 31.5,5.66667 27.5,5C 29.0931,4.05127 30.4264,2.88461 31.5,1.5 Z"/></g>
<g><path style="opacity:1" fill="#eaeaea" d="M 49.5,34.5 C 45.041,37.787 40.7077,41.287 36.5,45C 34.5,45.6667 32.5,45.6667 30.5,45C 29.1537,43.3308 27.487,42.1642 25.5,41.5C 21.2129,37.55 16.8795,33.55 12.5,29.5C 11.3358,22.8582 11.1691,16.1915 12,9.5C 12.5,9 13,8.5 13.5,8C 26.8333,7.33333 40.1667,7.33333 53.5,8C 54,8.5 54.5,9 55,9.5C 55.8309,16.1915 55.6642,22.8582 54.5,29.5C 52.4788,30.8545 50.8121,32.5212 49.5,34.5 Z"/></g>
<g><path style="opacity:1" fill="#1f1f1f" d="M 36.5,27.5 C 33.2396,30.2563 30.073,29.9229 27,26.5C 25.3917,21.1066 27.3917,18.1066 33,17.5C 38.8787,18.3022 41.0453,21.6355 39.5,27.5C 40.8333,27.5 42.1667,27.5 43.5,27.5C 43.3569,17.5362 38.3569,13.7029 28.5,16C 21.6808,21.7588 22.0142,27.0922 29.5,32C 33.8711,32.1725 38.2044,32.6725 42.5,33.5C 37.8687,34.6616 33.202,34.8283 28.5,34C 21.5864,30.2303 19.7531,24.7303 23,17.5C 31.0244,10.4555 38.3578,11.1222 45,19.5C 47.7769,28.9008 44.9436,31.5675 36.5,27.5 Z"/></g>
<g><path style="opacity:1" fill="#f0f0f0" d="M 36.5,27.5 C 34.4727,27.6621 32.4727,27.4955 30.5,27C 27.8333,25 27.8333,23 30.5,21C 35.921,19.7201 37.921,21.8868 36.5,27.5 Z"/></g>
<g><path style="opacity:1" fill="#676f80" d="M 8.5,21.5 C 9.61295,22.9464 9.77961,24.6131 9,26.5C 6.11429,24.8298 5.94763,23.1631 8.5,21.5 Z"/></g>
<g><path style="opacity:1" fill="#666e7f" d="M 57.5,21.5 C 61.2763,22.6649 61.443,24.3315 58,26.5C 57.5065,24.8659 57.3398,23.1992 57.5,21.5 Z"/></g>
<g><path style="opacity:1" fill="#c66971" d="M 7.5,28.5 C 6.16667,36.5 6.16667,44.5 7.5,52.5C 7.44001,53.0431 7.10667,53.3764 6.5,53.5C 5.16667,44.8333 5.16667,36.1667 6.5,27.5C 7.10667,27.6236 7.44001,27.9569 7.5,28.5 Z"/></g>
<g><path style="opacity:1" fill="#ffff" d="M 7.5,28.5 C 12.4416,32.1028 17.1082,36.1028 21.5,40.5C 17.1334,44.8678 12.4667,48.8678 7.5,52.5C 6.16667,44.5 6.16667,36.5 7.5,28.5 Z"/></g>
<g><path style="opacity:1" fill="#ffff" d="M 59.5,53.5 C 55.1941,49.3654 50.6941,45.3654 46,41.5C 47.1378,39.487 48.6378,37.487 50.5,35.5C 54.1029,33.2369 57.4362,30.5703 60.5,27.5C 60.8333,31.8333 61.1667,36.1667 61.5,40.5C 61.4921,45.2216 60.8255,49.5549 59.5,53.5 Z"/></g>
<g><path style="opacity:1" fill="#211718" d="M 49.5,34.5 C 50.1667,34.5 50.5,34.8333 50.5,35.5C 48.6378,37.487 47.1378,39.487 46,41.5C 50.6941,45.3654 55.1941,49.3654 59.5,53.5C 58.5084,53.3284 57.8417,53.6618 57.5,54.5C 53.1473,50.1484 48.4807,46.1484 43.5,42.5C 36.9166,50.3127 30.5833,50.3127 24.5,42.5C 24.5,41.8333 24.8333,41.5 25.5,41.5C 27.487,42.1642 29.1537,43.3308 30.5,45C 32.5,45.6667 34.5,45.6667 36.5,45C 40.7077,41.287 45.041,37.787 49.5,34.5 Z"/></g>
<g><path style="opacity:1" fill="#ffff" d="M 24.5,42.5 C 30.5833,50.3127 36.9166,50.3127 43.5,42.5C 48.4807,46.1484 53.1473,50.1484 57.5,54.5C 51.1667,55.1667 44.8333,55.8333 38.5,56.5C 38.1667,57.1667 37.8333,57.8333 37.5,58.5C 36.8333,58.5 36.1667,58.5 35.5,58.5C 34.1667,55.8333 32.8333,55.8333 31.5,58.5C 30.8333,58.5 30.1667,58.5 29.5,58.5C 29.1667,57.8333 28.8333,57.1667 28.5,56.5C 22.1667,55.8333 15.8333,55.1667 9.5,54.5C 13.983,49.7705 18.983,45.7705 24.5,42.5 Z"/></g>
<g><path style="opacity:1" fill="#ffff" d="M 9.5,54.5 C 15.8333,55.1667 22.1667,55.8333 28.5,56.5C 21.8002,56.83 15.1335,56.4967 8.5,55.5C 8.62358,54.8933 8.95691,54.56 9.5,54.5 Z"/></g>
<g><path style="opacity:1" fill="#ffff" d="M 57.5,54.5 C 58.0431,54.56 58.3764,54.8933 58.5,55.5C 51.8665,56.4967 45.1998,56.83 38.5,56.5C 44.8333,55.8333 51.1667,55.1667 57.5,54.5 Z"/></g>
<g><path style="opacity:0.871" fill="#13090a" d="M 35.5,58.5 C 34.1667,58.5 32.8333,58.5 31.5,58.5C 32.8333,55.8333 34.1667,55.8333 35.5,58.5 Z"/></g>
</svg>
