<?xml version="1.0" standalone="no"?>
<!DOCTYPE svg PUBLIC "-//W3C//DTD SVG 20010904//EN"
 "http://www.w3.org/TR/2001/REC-SVG-20010904/DTD/svg10.dtd">
<svg version="1.0" xmlns="http://www.w3.org/2000/svg"
 width="60.000000pt" height="55.000000pt" viewBox="0 0 68.000000 59.000000"
 preserveAspectRatio="xMidYMid meet">

<g transform="translate(0.000000,59.000000) scale(0.100000,-0.100000)"
fill="#ffff" stroke="none">
<path d="M145 434 c-13 -13 -15 -37 -13 -142 l3 -127 35 -17 c44 -21 94 -23
110 -3 7 8 27 15 46 15 37 0 61 29 48 58 -5 14 -8 13 -13 -8 -5 -19 -14 -26
-39 -28 l-31 -3 -3 108 -3 108 -35 18 -35 18 70 -3 70 -3 3 -33 c4 -36 22 -34
22 3 0 45 -23 55 -125 55 -72 0 -97 -4 -110 -16z"/>
<path d="M400 354 c-79 -62 -79 -56 -12 -108 33 -25 63 -46 66 -46 2 0 6 10 8
23 2 18 10 23 46 25 l42 3 0 44 0 44 -42 3 c-36 2 -44 7 -46 26 -4 29 -8 28
-62 -14z"/>
</g>
</svg>
