<?xml version="1.0" standalone="no"?>
<!DOCTYPE svg PUBLIC "-//W3C//DTD SVG 20010904//EN"
 "http://www.w3.org/TR/2001/REC-SVG-20010904/DTD/svg10.dtd">
<svg version="1.0" xmlns="http://www.w3.org/2000/svg"
 width="60.000000pt" height="55.000000pt" viewBox="0 0 68.000000 59.000000"
 preserveAspectRatio="xMidYMid meet">

<g transform="translate(0.000000,59.000000) scale(0.100000,-0.100000)"
fill="#ffff" stroke="none">
<path d="M531 490 l-12 -40 -98 0 -98 0 7 -45 7 -44 -44 -7 c-23 -3 -53 -4
-66 0 -66 16 -154 -50 -143 -107 3 -16 15 -41 25 -56 19 -26 19 -29 3 -45 -16
-16 -16 -18 2 -31 14 -10 24 -11 45 -3 33 13 167 13 202 -1 30 -11 67 7 55 27
-5 9 12 12 62 12 l69 0 6 83 c4 45 7 108 7 139 0 33 5 60 12 64 7 5 4 10 -10
15 -19 7 -20 12 -12 34 12 32 13 45 2 45 -5 0 -14 -18 -21 -40z m9 -85 l0 -36
-92 3 c-80 3 -93 5 -96 21 -8 42 3 47 98 47 l90 0 0 -35z m0 -89 c0 -57 -8
-66 -55 -66 -37 0 -45 4 -50 23 -4 12 -19 34 -33 50 l-26 27 82 0 82 0 0 -34z
m-334 15 c-8 -12 -46 -21 -46 -11 0 9 18 18 38 19 7 1 11 -3 8 -8z m104 -1 c0
-5 -4 -10 -10 -10 -5 0 -10 5 -10 10 0 6 5 10 10 10 6 0 10 -4 10 -10z m55
-11 c-3 -4 -12 -6 -20 -3 -8 4 -13 10 -10 15 3 4 12 6 20 3 8 -4 13 -10 10
-15z m-115 1 c0 -5 -4 -10 -10 -10 -5 0 -10 5 -10 10 0 6 5 10 10 10 6 0 10
-4 10 -10z m150 -20 c0 -5 -4 -10 -10 -10 -5 0 -10 5 -10 10 0 6 5 10 10 10 6
0 10 -4 10 -10z m-196 -50 c-1 -27 -2 -53 -3 -57 -3 -16 -51 42 -51 62 0 25
18 45 40 45 12 0 15 -11 14 -50z m83 44 c-3 -3 -12 -4 -19 -1 -8 3 -5 6 6 6
11 1 17 -2 13 -5z m71 -6 c19 -19 14 -53 -12 -77 -29 -28 -52 -20 -35 11 6 11
8 33 5 49 -4 23 -2 29 12 29 10 0 23 -5 30 -12z m-228 -22 c0 -16 -18 -31 -27
-22 -8 8 5 36 17 36 5 0 10 -6 10 -14z m290 -8 c0 -7 -4 -19 -9 -27 -11 -17
-25 3 -17 24 7 18 26 20 26 3z m-166 -49 c-3 -5 -10 -7 -15 -3 -5 3 -7 10 -3
15 3 5 10 7 15 3 5 -3 7 -10 3 -15z m276 -9 l0 -30 -65 0 -64 0 17 30 c15 27
22 30 65 30 46 0 47 -1 47 -30z m-390 16 c0 -3 -4 -8 -10 -11 -5 -3 -10 -1
-10 4 0 6 5 11 10 11 6 0 10 -2 10 -4z m245 -16 c3 -5 1 -10 -4 -10 -6 0 -11
5 -11 10 0 6 2 10 4 10 3 0 8 -4 11 -10z m-215 -14 c0 -3 -4 -8 -10 -11 -5 -3
-10 -1 -10 4 0 6 5 11 10 11 6 0 10 -2 10 -4z m125 -7 c11 -17 0 -20 -21 -4
-17 13 -17 14 -2 15 9 0 20 -5 23 -11z m-96 -30 c-16 -10 -23 -4 -14 10 3 6
11 8 17 5 6 -4 5 -9 -3 -15z m156 1 c3 -5 -3 -10 -14 -10 -12 0 -21 5 -21 10
0 6 6 10 14 10 8 0 18 -4 21 -10z"/>
</g>
</svg>
